<svg xmlns="http://www.w3.org/2000/svg" width="300" height="420" viewBox="0 0 300 420"><rect width="300" height="420" fill="#c5b697"/><rect x="17" y="17" width="266" height="386" rx="1" fill="none" stroke="#4b4034" stroke-opacity=".65"/><rect x="23" y="23" width="254" height="374" fill="none" stroke="#4b4034" stroke-opacity=".25"/><path d="M9 0v420" stroke="#000" stroke-opacity=".3" stroke-width="9"/><text x="150" y="52" text-anchor="middle" fill="#4b4034" font-family="Arial" font-size="8" letter-spacing="3">LUMINA EDITIONS</text><text x="150" y="100" text-anchor="middle" fill="#4b4034" font-family="Georgia,serif" font-size="25" letter-spacing="1">THE QUIET</text><text x="150" y="134" text-anchor="middle" fill="#4b4034" font-family="Georgia,serif" font-size="25" letter-spacing="1">ARCHITECTURE</text><g fill="none" stroke="#4b4034" stroke-width="1.4" opacity=".8"><path d="M90 335V240a60 60 0 0 1 120 0v95M110 335V240a40 40 0 0 1 80 0v95M130 335V240a20 20 0 0 1 40 0v95M75 335h150"/></g><text x="150" y="379" text-anchor="middle" fill="#4b4034" font-family="Arial" font-size="8" letter-spacing="2">THE ORIGINAL COLLECTION · 05</text></svg>
